<svg t="1623141815575" class="icon" viewBox="0 0 1024 1024" version="1.1" xmlns="http://www.w3.org/2000/svg" p-id="2529" width="200" height="200"><path d="M800 256c35.346 0 64 28.654 64 64v64h32c35.346 0 64 28.654 64 64v128c0 35.346-28.654 64-64 64h-32v64c0 35.346-28.654 64-64 64H128c-35.346 0-64-28.654-64-64V320c0-35.346 28.654-64 64-64h672z m96 320V448h-96V320H128v384h672V576h96z" fill="#000000" p-id="2530"></path><path d="M164 356m24 0l152 0q24 0 24 24l0 264q0 24-24 24l-152 0q-24 0-24-24l0-264q0-24 24-24Z" fill="#000000" p-id="2531"></path></svg>